<svg width="1136" height="192" viewBox="0 0 1136 192" fill="none" xmlns="http://www.w3.org/2000/svg">
<path d="M484.623 151.999V0H508.468V151.999H484.623Z" fill="black"/>
<path fill-rule="evenodd" clip-rule="evenodd" d="M379.021 150.96C386.296 154.146 394.716 155.739 404.28 155.739C413.845 155.739 422.265 154.146 429.54 150.96C436.814 147.635 442.944 143.272 447.928 137.869C452.913 132.467 456.685 126.372 459.245 119.584C461.804 112.657 463.084 105.523 463.084 98.1814V94.0255C463.084 86.6836 461.737 79.5497 459.043 72.6233C456.483 65.697 452.644 59.5326 447.524 54.13C442.405 48.589 436.208 44.2253 428.933 41.0393C421.793 37.8531 413.576 36.2601 404.28 36.2601C394.985 36.2601 386.7 37.8531 379.425 41.0393C372.151 44.2253 365.954 48.589 360.834 54.13C355.85 59.5326 352.01 65.697 349.316 72.6233C346.756 79.5497 345.477 86.6836 345.477 94.0255V98.1814C345.477 105.523 346.756 112.657 349.316 119.584C351.876 126.372 355.648 132.467 360.632 137.869C365.617 143.272 371.746 147.635 379.021 150.96ZM423.275 129.558C418.021 132.882 411.69 134.545 404.28 134.545C396.871 134.545 390.539 132.882 385.285 129.558C380.031 126.094 375.99 121.454 373.161 115.636C370.467 109.818 369.119 103.307 369.119 96.1035C369.119 88.7616 370.534 82.1816 373.363 76.3635C376.192 70.5454 380.233 65.9741 385.487 62.6494C390.741 59.1863 397.006 57.4547 404.28 57.4547C411.555 57.4547 417.819 59.1863 423.073 62.6494C428.327 65.9741 432.369 70.5454 435.198 76.3635C438.027 82.1816 439.441 88.7616 439.441 96.1035C439.441 103.307 438.027 109.818 435.198 115.636C432.503 121.454 428.529 126.094 423.275 129.558Z" fill="black"/>
<path d="M252.731 145.765C260.948 152.137 272.399 155.323 287.083 155.323C296.244 155.323 304.26 153.869 311.13 150.96C318.136 147.912 323.592 143.687 327.498 138.285C331.405 132.882 333.358 126.579 333.358 119.376C333.358 109.402 329.721 101.645 322.446 96.1035C315.306 90.4238 305.607 86.8915 293.348 85.5062L282.638 84.4673C276.576 83.7747 272.197 82.3201 269.503 80.1036C266.809 77.8872 265.461 74.8397 265.461 70.9611C265.461 66.6667 267.213 63.1343 270.715 60.3638C274.353 57.5933 279.539 56.208 286.275 56.208C293.415 56.208 298.804 57.6625 302.441 60.5715C306.078 63.4806 308.032 67.0823 308.301 71.3766H329.923C329.654 60.0175 325.545 51.4288 317.597 45.6107C309.648 39.6541 299.208 36.6757 286.275 36.6757C277.923 36.6757 270.513 38.061 264.047 40.8315C257.715 43.6021 252.731 47.55 249.093 52.6755C245.456 57.801 243.637 64.104 243.637 71.5844C243.637 81.0042 246.871 88.4845 253.337 94.0255C259.938 99.5667 268.829 102.961 280.011 104.207L290.721 105.246C298.265 106.077 303.586 107.74 306.685 110.233C309.918 112.588 311.534 115.844 311.534 119.999C311.534 124.571 309.379 128.38 305.068 131.428C300.757 134.475 294.83 135.999 287.285 135.999C278.394 135.999 271.995 134.267 268.088 130.804C264.182 127.341 262.094 123.532 261.824 119.376H240C240.404 130.597 244.648 139.393 252.731 145.765Z" fill="black"/>
<path d="M534.674 40.0004V151.999H558.317V40.0004H534.674Z" fill="black"/>
<path fill-rule="evenodd" clip-rule="evenodd" d="M632.757 155.739C624.944 155.739 617.804 154.285 611.338 151.375C605.006 148.466 599.415 144.38 594.565 139.116C589.85 133.852 586.213 127.757 583.653 120.83C581.094 113.904 579.814 106.354 579.814 98.1814V94.2334C579.814 86.1989 581.026 78.7185 583.451 71.7922C586.011 64.7273 589.581 58.5629 594.161 53.299C598.741 48.0349 604.198 43.9484 610.529 41.0393C616.996 37.9917 624.135 36.4679 631.949 36.4679C640.302 36.4679 647.778 38.338 654.379 42.0782C660.463 45.3311 665.447 50.2222 669.333 56.7515V0H692.976V151.999H674.183V129.108C673.563 130.493 672.89 131.82 672.162 133.09C667.851 140.848 662.26 146.596 655.39 150.337C648.519 153.938 640.975 155.739 632.757 155.739ZM637.203 134.752C643.265 134.752 648.721 133.367 653.571 130.597C658.556 127.826 662.53 123.809 665.494 118.545C668.592 113.142 670.141 106.839 670.141 99.6359V90.7009C670.141 83.6361 668.592 77.6104 665.494 72.6233C662.395 67.6364 658.354 63.8269 653.369 61.1949C648.385 58.5629 642.928 57.2469 637.001 57.2469C630.4 57.2469 624.54 58.9092 619.42 62.2339C614.436 65.4199 610.529 69.9221 607.7 75.7402C604.871 81.5582 603.457 88.3459 603.457 96.1035C603.457 104 604.871 110.857 607.7 116.675C610.664 122.493 614.705 126.995 619.825 130.181C624.944 133.229 630.737 134.752 637.203 134.752Z" fill="black"/>
<path fill-rule="evenodd" clip-rule="evenodd" d="M732.668 192H763.495C776.978 192 789.989 190.806 798.36 187.742C806.732 184.678 814.76 179.981 818.936 171.531C823.247 163.219 825.402 152.276 825.402 138.7V40.0004H806.609V61.837C806.287 61.1246 805.951 60.4258 805.599 59.7404C801.692 52.1215 796.304 46.3726 789.433 42.4938C782.697 38.4766 774.884 36.4679 765.992 36.4679C758.314 36.4679 751.241 37.8531 744.775 40.6238C738.443 43.3943 732.987 47.3423 728.407 52.4678C723.826 57.4547 720.256 63.342 717.697 70.1299C715.272 76.9176 714.059 84.2594 714.059 92.1555V96.1035C714.059 103.861 715.272 111.203 717.697 118.129C720.122 124.917 723.557 130.943 728.002 136.207C732.448 141.471 737.769 145.557 743.966 148.466C750.163 151.375 757.034 152.83 764.578 152.83C772.93 152.83 780.34 150.96 786.806 147.22C793.407 143.479 798.661 137.938 802.568 130.597C802.641 130.465 802.713 130.332 802.784 130.199L802.972 129.845V139.947C802.972 148.259 801.625 154.977 798.931 160.103C796.371 165.367 791.759 167.844 786.806 169.312C780.895 171.065 763.495 171.531 763.495 171.531H732.668V192ZM786.604 127.272C781.754 129.904 776.366 131.22 770.438 131.22C764.106 131.22 758.448 129.765 753.464 126.856C748.614 123.809 744.775 119.514 741.946 113.973C739.117 108.294 737.702 101.645 737.702 94.0255C737.702 86.5452 739.049 80.0345 741.744 74.4934C744.573 68.8138 748.479 64.4503 753.464 61.4027C758.448 58.2166 764.174 56.6235 770.64 56.6235C776.298 56.6235 781.552 57.8702 786.402 60.3638C791.252 62.8572 795.159 66.5282 798.122 71.3766C801.221 76.0865 802.77 81.9045 802.77 88.8308V97.3502C802.77 104.415 801.288 110.51 798.324 115.636C795.495 120.623 791.589 124.501 786.604 127.272Z" fill="black"/>
<path fill-rule="evenodd" clip-rule="evenodd" d="M918.5 151.999V130.478C917.599 133.4 916.454 136.071 915.065 138.493C912.101 143.757 907.925 147.843 902.536 150.752C897.282 153.523 890.816 154.908 883.137 154.908C875.189 154.908 868.251 153.523 862.324 150.752C856.396 147.843 851.816 143.687 848.583 138.285C845.349 132.744 843.733 126.164 843.733 118.545C843.733 110.51 845.551 103.861 849.189 98.5969C852.961 93.333 858.282 89.3849 865.153 86.7529C872.023 84.1208 880.241 82.8049 889.806 82.8049H914.661V80.7271C914.661 73.8007 912.91 68.5369 909.407 64.9351C905.904 61.3334 900.718 59.5326 893.847 59.5326C890.075 59.5326 885.899 59.6018 881.319 59.7404C876.738 59.8789 872.225 60.0867 867.78 60.3638C863.469 60.5023 859.629 60.7101 856.261 60.9871V40.0004C859.225 39.7233 862.458 39.5155 865.961 39.377C869.598 39.1 873.303 38.8921 877.075 38.7537C880.982 38.6151 884.687 38.5458 888.189 38.5458C899.236 38.5458 908.397 40.0004 915.671 42.9094C922.946 45.8185 928.335 50.4591 931.837 56.8313C935.475 63.0651 937.293 71.4458 937.293 81.9738V151.999H918.5ZM914.661 98.8047V110.441C914.391 117.229 912.977 122.493 910.417 126.233C907.993 129.973 904.894 132.674 901.122 134.337C897.35 135.861 893.376 136.622 889.2 136.622C882.06 136.622 876.604 134.96 872.832 131.635C869.059 128.172 867.173 123.601 867.173 117.921C867.173 112.242 869.059 107.67 872.832 104.207C876.604 100.606 882.06 98.8047 889.2 98.8047H914.661Z" fill="black"/>
<path d="M978.83 149.505C985.027 151.999 992.639 153.246 1001.66 153.246H1018.03V132.051H999.846C994.323 132.051 990.012 130.527 986.913 127.48C983.949 124.294 982.468 119.792 982.468 113.973V58.0781H1018.03V40.0004H982.468V8H960.037V111.896C960.037 122.285 961.586 130.527 964.685 136.622C967.918 142.718 972.633 147.012 978.83 149.505Z" fill="black"/>
<path fill-rule="evenodd" clip-rule="evenodd" d="M1084.47 155.739C1075.04 155.739 1066.82 154.077 1059.82 150.752C1052.81 147.427 1047.09 143.064 1042.64 137.661C1038.2 132.12 1034.83 125.956 1032.54 119.168C1030.38 112.242 1029.3 105.177 1029.3 97.9736V94.0255C1029.3 86.6836 1030.38 79.6189 1032.54 72.8312C1034.83 65.9048 1038.2 59.7404 1042.64 54.3379C1047.09 48.7968 1052.68 44.4332 1059.41 41.2471C1066.28 37.9225 1074.23 36.2601 1083.26 36.2601C1094.98 36.2601 1104.75 38.8921 1112.56 44.1561C1120.37 49.4202 1126.23 56.2772 1130.14 64.7273C1134.05 73.0389 1136 82.043 1136 91.7399V101.506H1051.94C1052.37 106.856 1053.45 111.773 1055.17 116.259C1057.46 122.077 1061.03 126.718 1065.88 130.181C1070.73 133.506 1076.93 135.168 1084.47 135.168C1092.02 135.168 1098.21 133.506 1103.06 130.181C1107.91 126.718 1110.88 122.701 1111.95 118.129H1133.98C1132.5 125.748 1129.47 132.397 1124.89 138.077C1120.44 143.757 1114.78 148.12 1107.91 151.168C1101.04 154.215 1093.23 155.739 1084.47 155.739ZM1055.17 75.5323C1054.02 78.4561 1053.16 81.6421 1052.59 85.0906H1113.04C1112.5 81.0352 1111.53 77.3643 1110.13 74.0779C1107.84 68.5367 1104.48 64.3118 1100.03 61.4027C1095.59 58.3551 1089.99 56.8313 1083.26 56.8313C1076.25 56.8313 1070.39 58.4937 1065.68 61.8182C1060.96 65.1429 1057.46 69.7142 1055.17 75.5323Z" fill="black"/>
<path d="M534.674 0V24.48H558.317V0H534.674Z" fill="black"/>
<rect width="192" height="192" fill="#4DF987"/>
<path d="M120 72L72 72V40L152 40V120H120L120 72Z" fill="black"/>
<path d="M120 152L120 120L72 120L72 72L40 72L40 152L120 152Z" fill="black"/>
</svg>
